<svg width="24" height="24" viewBox="0 0 24 24" fill="none" xmlns="http://www.w3.org/2000/svg">
<path d="M23.4786 10.924C23.951 10.4636 24.1178 9.78791 23.914 9.1598C23.7098 8.53169 23.1778 8.08331 22.5242 7.98816L16.7131 7.14378C16.4656 7.10774 16.2517 6.95251 16.1412 6.72808L13.5432 1.4624C13.2515 0.870815 12.6594 0.503174 11.9996 0.503174C11.3402 0.503174 10.7481 0.870815 10.4564 1.4624L7.85795 6.72808C7.74742 6.95251 7.53308 7.10774 7.28559 7.14378L1.47445 7.98864C0.821351 8.08331 0.289352 8.53169 0.0851072 9.1598C-0.118657 9.78791 0.0481028 10.4636 0.52051 10.924L4.72508 15.0224C4.90433 15.1973 4.98651 15.4491 4.94422 15.6952L3.95183 21.4827C3.84033 22.133 4.10225 22.7774 4.63617 23.1657C5.16961 23.5545 5.86404 23.605 6.4489 23.2969L11.6459 20.5644C11.8674 20.4481 12.1317 20.4481 12.3533 20.5644L17.5507 23.2969C17.8045 23.4305 18.0793 23.4964 18.3528 23.4964C18.7079 23.4964 19.0616 23.3853 19.3634 23.1657C19.8974 22.7774 20.1593 22.133 20.0478 21.4827L19.0549 15.6956C19.0126 15.4491 19.0948 15.1978 19.2741 15.0228L23.4786 10.924ZM18.1082 15.8581L19.1006 21.6452C19.1505 21.9364 19.0376 22.2147 18.7983 22.3886C18.5585 22.5621 18.26 22.5833 17.9981 22.4468L12.8007 19.7137C12.5503 19.5825 12.2745 19.5162 11.9996 19.5162C11.7247 19.5162 11.4493 19.5825 11.1984 19.7142L6.00197 22.4468C5.73909 22.5833 5.44065 22.5621 5.20133 22.3886C4.962 22.2147 4.84954 21.9369 4.89904 21.6452L5.89143 15.8581C5.98707 15.2996 5.80205 14.7297 5.39644 14.3347L1.19139 10.2358C0.97946 10.0292 0.907374 9.73793 0.999164 9.4568C1.09047 9.17518 1.31971 8.98199 1.61238 8.93922L7.42303 8.09484C7.98387 8.01363 8.46877 7.66184 8.71915 7.15339L11.3176 1.88772C11.4483 1.62244 11.7035 1.46433 11.9991 1.46433C12.2951 1.46433 12.5498 1.62244 12.681 1.88772L15.2795 7.15339C15.5299 7.66184 16.0143 8.01363 16.5751 8.09484L22.3863 8.93922C22.6789 8.98199 22.9082 9.17518 22.9995 9.4568C23.0908 9.73793 23.0192 10.0292 22.8073 10.2358L18.6027 14.3342C18.1971 14.7297 18.0121 15.2992 18.1082 15.8581Z" fill="#ED8A19"/>
<path d="M18.1082 15.8581L19.1006 21.6452C19.1505 21.9364 19.0376 22.2147 18.7983 22.3886C18.5585 22.5621 18.26 22.5833 17.9981 22.4468L12.8007 19.7137C12.5503 19.5825 12.2745 19.5162 11.9996 19.5162C11.7247 19.5162 11.4493 19.5825 11.1984 19.7142L6.00197 22.4468C5.73909 22.5833 5.44065 22.5621 5.20133 22.3886C4.962 22.2147 4.84954 21.9369 4.89904 21.6452L5.89143 15.8581C5.98707 15.2996 5.80205 14.7297 5.39644 14.3347L1.19139 10.2358C0.97946 10.0292 0.907374 9.73793 0.999164 9.4568C1.09047 9.17518 1.31971 8.98199 1.61238 8.93922L7.42303 8.09484C7.98387 8.01363 8.46877 7.66184 8.71915 7.15339L11.3176 1.88772C11.4483 1.62244 11.7035 1.46433 11.9991 1.46433C12.2951 1.46433 12.5498 1.62244 12.681 1.88772L15.2795 7.15339C15.5299 7.66184 16.0143 8.01363 16.5751 8.09484L22.3863 8.93922C22.6789 8.98199 22.9082 9.17518 22.9995 9.4568C23.0908 9.73793 23.0192 10.0292 22.8073 10.2358L18.6027 14.3342C18.1971 14.7297 18.0121 15.2992 18.1082 15.8581Z" fill="#ED8A19"/>
</svg>
